<?xml version="1.0" standalone="no"?>
<!DOCTYPE svg PUBLIC "-//W3C//DTD SVG 20010904//EN"
 "http://www.w3.org/TR/2001/REC-SVG-20010904/DTD/svg10.dtd">
<svg version="1.0" xmlns="http://www.w3.org/2000/svg"
 width="640.000000pt" height="640.000000pt" viewBox="0 0 640.000000 640.000000"
 preserveAspectRatio="xMidYMid meet">
<metadata>
Created by potrace 1.11, written by Peter Selinger 2001-2013
</metadata>
<g transform="translate(0.000000,640.000000) scale(0.100000,-0.100000)"
fill="#000000" stroke="none">
<path d="M2476 6252 c64 -55 93 -137 88 -250 -7 -151 -37 -234 -109 -303 -202
-191 -291 -449 -249 -727 7 -48 20 -107 28 -131 9 -24 16 -47 16 -51 0 -4 -39
-20 -87 -35 -352 -108 -581 -346 -669 -691 -34 -137 -42 -218 -39 -389 4 -141
7 -184 21 -245 3 -14 8 -42 10 -62 5 -36 4 -37 -38 -49 -377 -104 -590 -293
-669 -594 -22 -87 -30 -257 -17 -375 10 -85 50 -248 82 -333 14 -37 26 -69 26
-71 0 -2 -18 -6 -40 -10 -22 -3 -77 -18 -122 -32 -366 -115 -610 -360 -688
-689 -29 -122 -26 -340 5 -462 71 -278 284 -492 603 -607 70 -25 82 -26 286
-26 l212 0 105 36 c174 59 327 96 494 119 22 3 49 7 60 10 105 21 500 24 695
6 171 -17 390 -55 540 -94 l125 -32 1175 0 c646 1 1200 5 1230 9 219 30 414
97 550 189 69 47 181 166 223 237 21 36 47 96 59 134 19 62 20 84 15 240 -6
190 -8 202 -43 335 -32 122 -99 259 -168 343 -125 152 -326 245 -536 250 l-85
2 28 85 c110 325 119 636 26 854 -95 224 -294 388 -561 463 l-95 27 14 61 c8
34 16 132 18 221 5 185 -9 259 -72 383 -102 205 -335 359 -608 403 -44 7 -82
14 -84 16 -2 1 -6 60 -7 130 -19 757 -504 1330 -1379 1630 -96 32 -292 85
-365 97 l-35 6 31 -28z"/>
</g>
</svg>
