<svg xmlns="http://www.w3.org/2000/svg" viewBox="0 0 1440 320" width="100%" preserveAspectRatio="xMinYMin slice">
    <path fill="#683500" fill-opacity="1" d="M0,224L30,208C60,192,120,160,180,160C240,160,300,192,360,192C420,192,480,160,540,170.7C600,181,660,235,720,213.3C780,192,840,96,900,101.3C960,107,1020,213,1080,229.3C1140,245,1200,171,1260,165.3C1320,160,1380,224,1410,256L1440,288L1440,0L1410,0C1380,0,1320,0,1260,0C1200,0,1140,0,1080,0C1020,0,960,0,900,0C840,0,780,0,720,0C660,0,600,0,540,0C480,0,420,0,360,0C300,0,240,0,180,0C120,0,60,0,30,0L0,0Z"></path>
</svg>
